<svg width="520" height="620" viewBox="0 0 520 620" fill="none" xmlns="http://www.w3.org/2000/svg">
  <defs>
    <linearGradient id="bg" x1="0" y1="0" x2="1" y2="1">
      <stop offset="0%" stop-color="#34d399"/>
      <stop offset="100%" stop-color="#0f766e"/>
    </linearGradient>
    <linearGradient id="coat" x1="0" y1="0" x2="1" y2="1">
      <stop offset="0%" stop-color="#111827"/>
      <stop offset="100%" stop-color="#1f2937"/>
    </linearGradient>
  </defs>
  <rect width="520" height="620" rx="48" fill="#0b1421"/>
  <path d="M260 112c68 0 126 58 126 126v32c0 69-57 126-126 126s-126-57-126-126v-32c0-68 58-126 126-126z" fill="#d6b08b"/>
  <path d="M142 232c0-66 52-116 118-116 78 0 120 58 120 120v20h-16v-18c0-50-38-92-94-92-56 0-92 40-92 90v20h-36v-24z" fill="#0f172a"/>
  <path d="M88 620c6-126 84-192 172-192s164 68 172 192H88z" fill="url(#coat)"/>
  <path d="M200 438l58 94 62-94" stroke="url(#bg)" stroke-width="8" stroke-linecap="round"/>
</svg>
